<svg width="34.5" height="25" viewBox="0 0 51 37" fill="none" xmlns="http://www.w3.org/2000/svg">
<path stroke="black" stroke-width="2" d="M47.8027 0.00250244H3.17773C2.33236 0.00250244 1.5216 0.338327 0.923831 0.9361C0.326059 1.53387 -0.00976562 2.34462 -0.00976562 3.19L-0.00976562 32.94C-0.00976562 33.7854 0.326059 34.5961 0.923831 35.1939C1.5216 35.7917 2.33236 36.1275 3.17773 36.1275H47.8027C48.6481 36.1275 49.4589 35.7917 50.0566 35.1939C50.6544 34.5961 50.9902 33.7854 50.9902 32.94V3.19C50.9902 2.34462 50.6544 1.53387 50.0566 0.9361C49.4589 0.338327 48.6481 0.00250244 47.8027 0.00250244ZM47.1227 2.1275L25.4902 18.8513L3.85773 2.1275H47.1227ZM2.11523 32.5044V3.46625L18.4884 16.1206L2.11523 32.5044ZM3.61336 34.0025L20.1777 17.4381L24.8315 21.04C25.0173 21.183 25.2451 21.2606 25.4796 21.2606C25.7141 21.2606 25.9419 21.183 26.1277 21.04L30.8027 17.4381L47.3671 34.0025H3.61336ZM48.8652 32.5044L32.4921 16.1206L48.8652 3.46625V32.5044Z" fill="#24292f"/>
</svg>
